<svg width="40" height="9" viewBox="0 0 40 9" fill="none" xmlns="http://www.w3.org/2000/svg">
<path d="M8.12241 0.594103L0.598202 3.87071C0.0583593 4.10588 0 4.50306 0 4.66303C0 4.82293 0.0583593 5.22018 0.598202 5.45528L8.12241 8.73195C8.65162 8.96239 9.11467 8.80321 9.2892 8.72402C9.46373 8.64482 9.86959 8.40996 9.86959 7.93963V6.34822L12.2586 6.34822C12.4349 6.95254 13.1314 7.40392 13.9645 7.40392C14.7975 7.40392 15.4941 6.95254 15.6704 6.34822L37.8255 6.34822C39.0265 6.34822 40.0001 5.59369 40.0001 4.66296C40.0001 3.73218 39.0265 2.97771 37.8255 2.97771L15.6704 2.97771C15.4941 2.37339 14.7975 1.92195 13.9644 1.92195C13.1313 1.92195 12.4348 2.37339 12.2585 2.97771H9.86951V1.3863C9.86951 0.915849 9.46357 0.681047 9.28912 0.601913C9.11467 0.5229 8.65162 0.363662 8.12241 0.594103Z" fill="#970303"/>
</svg>
